<svg width="33" height="46" viewBox="0 0 33 46" fill="none" xmlns="http://www.w3.org/2000/svg">
<path d="M33 16.5098C33.0017 13.7292 32.3006 10.9932 30.9618 8.55609C29.6231 6.11895 27.6902 4.05966 25.3426 2.56949C22.995 1.07932 20.3088 0.206608 17.5337 0.0324127C14.7585 -0.141782 11.9843 0.388189 9.46881 1.5731C6.9533 2.75802 4.77803 4.55944 3.14505 6.81005C1.51208 9.06066 0.474361 11.6875 0.128292 14.4465C-0.217776 17.2055 0.139027 20.0072 1.16556 22.5914C2.19209 25.1756 3.85506 27.4584 6 29.2279V43.5098C5.99982 43.7656 6.06506 44.0172 6.18954 44.2407C6.31401 44.4642 6.49357 44.6522 6.71115 44.7867C6.92874 44.9212 7.17711 44.9979 7.43267 45.0094C7.68823 45.0208 7.94248 44.9668 8.17125 44.8523L16.5 40.6973L24.8306 44.8617C25.0395 44.9616 25.2685 45.0123 25.5 45.0098C25.8978 45.0098 26.2794 44.8518 26.5607 44.5705C26.842 44.2892 27 43.9076 27 43.5098V29.2279C28.8767 27.6822 30.388 25.7402 31.4254 23.5413C32.4628 21.3424 33.0005 18.9411 33 16.5098ZM3 16.5098C3 13.8398 3.79176 11.2297 5.27516 9.0096C6.75856 6.78954 8.86697 5.05921 11.3338 4.03742C13.8006 3.01564 16.515 2.7483 19.1337 3.2692C21.7525 3.7901 24.1579 5.07585 26.0459 6.96386C27.934 8.85187 29.2197 11.2573 29.7406 13.8761C30.2615 16.4948 29.9942 19.2092 28.9724 21.676C27.9506 24.1428 26.2203 26.2512 24.0002 27.7346C21.7801 29.218 19.1701 30.0098 16.5 30.0098C12.9208 30.0058 9.48933 28.5822 6.95845 26.0514C4.42757 23.5205 3.00397 20.089 3 16.5098ZM24 41.0835L17.1694 37.6692C16.961 37.5649 16.7312 37.5106 16.4981 37.5106C16.2651 37.5106 16.0353 37.5649 15.8269 37.6692L9 41.0835V31.2042C11.3219 32.3909 13.8924 33.0098 16.5 33.0098C19.1076 33.0098 21.6781 32.3909 24 31.2042V41.0835ZM16.5 27.0098C18.5767 27.0098 20.6068 26.394 22.3335 25.2402C24.0602 24.0865 25.406 22.4466 26.2007 20.528C26.9955 18.6094 27.2034 16.4981 26.7983 14.4613C26.3931 12.4245 25.3931 10.5536 23.9246 9.08518C22.4562 7.61673 20.5853 6.6167 18.5485 6.21155C16.5117 5.80641 14.4004 6.01434 12.4818 6.80906C10.5632 7.60378 8.92333 8.9496 7.76957 10.6763C6.61582 12.403 6 14.4331 6 16.5098C6.00298 19.2937 7.11018 21.9626 9.07867 23.9311C11.0472 25.8996 13.7161 27.0068 16.5 27.0098ZM16.5 9.0098C17.9834 9.0098 19.4334 9.44967 20.6668 10.2738C21.9001 11.0979 22.8614 12.2692 23.4291 13.6397C23.9968 15.0101 24.1453 16.5181 23.8559 17.973C23.5665 19.4278 22.8522 20.7642 21.8033 21.8131C20.7544 22.862 19.418 23.5763 17.9632 23.8657C16.5083 24.1551 15.0003 24.0066 13.6299 23.4389C12.2594 22.8712 11.0881 21.9099 10.264 20.6766C9.43987 19.4432 9 17.9932 9 16.5098C9 14.5207 9.79018 12.613 11.1967 11.2065C12.6032 9.79997 14.5109 9.0098 16.5 9.0098Z" fill="white"/>
</svg>
