<svg width="9" height="15" viewBox="0 0 9 15" fill="none" xmlns="http://www.w3.org/2000/svg">
<path d="M0.199816 13.8362C0.136468 13.8995 0.0862188 13.9747 0.0519352 14.0575C0.0176516 14.1403 4.76837e-06 14.229 4.76837e-06 14.3186C4.76837e-06 14.4081 0.0176516 14.4969 0.0519352 14.5796C0.0862188 14.6624 0.136468 14.7376 0.199816 14.8009C0.263164 14.8643 0.338369 14.9145 0.421137 14.9488C0.503905 14.9831 0.592615 15.0008 0.682203 15.0008C0.77179 15.0008 0.8605 14.9831 0.943268 14.9488C1.02604 14.9145 1.10124 14.8643 1.16459 14.8009L7.98277 7.98277C8.04616 7.91944 8.09645 7.84425 8.13077 7.76147C8.16508 7.6787 8.18274 7.58998 8.18274 7.50038C8.18274 7.41078 8.16508 7.32205 8.13077 7.23928C8.09645 7.15651 8.04616 7.08132 7.98277 7.01799L1.16459 0.199811C1.03665 0.0718741 0.863133 -3.56656e-09 0.682203 0C0.501273 3.56656e-09 0.327753 0.0718741 0.199816 0.199811C0.0718794 0.327748 4.76837e-06 0.501267 4.76837e-06 0.682197C4.76837e-06 0.863127 0.0718794 1.03665 0.199816 1.16458L6.53646 7.50038L0.199816 13.8362Z" fill="black"/>
</svg>
