<svg width="9" height="15" viewBox="0 0 9 15" fill="none" xmlns="http://www.w3.org/2000/svg">
<path d="M7.98292 13.8362C8.04627 13.8995 8.09652 13.9747 8.1308 14.0575C8.16509 14.1403 8.18273 14.229 8.18273 14.3186C8.18273 14.4081 8.16509 14.4969 8.1308 14.5796C8.09652 14.6624 8.04627 14.7376 7.98292 14.8009C7.91958 14.8643 7.84437 14.9145 7.7616 14.9488C7.67883 14.9831 7.59012 15.0008 7.50054 15.0008C7.41095 15.0008 7.32224 14.9831 7.23947 14.9488C7.1567 14.9145 7.0815 14.8643 7.01815 14.8009L0.199968 7.98277C0.136575 7.91944 0.0862851 7.84425 0.0519731 7.76147C0.0176611 7.6787 0 7.58998 0 7.50038C0 7.41078 0.0176611 7.32205 0.0519731 7.23928C0.0862851 7.15651 0.136575 7.08132 0.199968 7.01799L7.01815 0.199811C7.14609 0.0718741 7.31961 -3.56656e-09 7.50054 0C7.68147 3.56656e-09 7.85499 0.0718741 7.98292 0.199811C8.11086 0.327748 8.18273 0.501267 8.18273 0.682197C8.18273 0.863127 8.11086 1.03665 7.98292 1.16458L1.64627 7.50038L7.98292 13.8362Z" fill="black"/>
</svg>
