<svg width="44" height="43" viewBox="0 0 44 43" fill="none" xmlns="http://www.w3.org/2000/svg">
<path d="M35.7408 34.8071C35.3259 34.3274 34.9053 33.8567 34.499 33.37C33.7515 32.4797 32.6025 32.3086 31.8077 32.9782C31.0437 33.6257 31.0814 34.4945 32.0003 35.4395C33.1769 36.6478 34.434 37.7823 35.6001 39.0006C36.2242 39.6545 36.6531 40.4968 37.3121 41.1021C37.8101 41.5636 38.5426 42.0532 39.1451 42.0316C39.6563 42.0146 40.2946 41.3665 40.5933 40.8359C41.3745 39.4584 42.0098 37.9926 42.6823 36.5545C42.8632 36.1698 43.1155 35.7389 43.0802 35.3502C43.0311 34.778 42.7506 34.2255 42.573 33.6633C41.9115 33.9305 41.0101 34.0122 40.6327 34.5012C39.8835 35.4702 39.4262 36.6619 38.8091 37.8271C38.0862 37.4019 37.686 37.0648 38.3451 36.3174C38.9222 35.6596 38.9714 34.8792 38.6228 34.0296C36.8219 29.6283 35.3338 25.0718 33.1658 20.858C31.6506 17.9158 29.3032 15.3572 27.1459 12.7776C26.0265 11.4391 24.6329 10.2347 23.1517 9.30763C20.3932 7.5829 17.5003 7.00493 14.7605 9.55405C12.788 7.65775 10.89 5.82955 8.98336 4.00836C7.21798 2.32253 5.395 0.720877 2.90483 0.177736C2.82378 0.159629 2.74888 0.0788169 2.66819 0.0734184C1.68972 0.0313125 0.412641 -0.295925 0.0676569 0.871239C-0.304164 2.13376 0.925207 2.47652 1.89158 2.75651C4.60838 3.53913 6.41998 5.58307 8.39795 7.39125C9.70485 8.58648 10.9185 9.88902 12.2596 11.0435C12.9648 11.649 13.0238 12.1859 12.6459 12.9409C10.6498 16.9233 11.2554 20.8951 12.9669 24.7943C13.7393 26.5537 15.2711 27.7126 16.9006 28.638C18.5402 29.5739 20.3179 28.6412 21.0651 26.9592C23.1368 22.3006 20.9571 18.4499 18.7692 14.5857C18.161 13.509 17.3912 12.5213 16.6827 11.4767C17.7568 10.3933 18.8443 10.1508 20.1712 10.751C23.0247 12.0407 25.2143 14.1121 27.1059 16.5272C29.4677 19.5404 31.6454 22.6781 32.9953 26.2855C34.0374 29.065 34.9707 31.8837 35.9505 34.682C35.8799 34.7204 35.8092 34.7589 35.7386 34.7973L35.7408 34.8071ZM14.8317 14.2025C17.3426 16.6692 20.6282 23.3315 17.9851 26.4707C14.5198 25.3631 12.734 17.9539 14.8317 14.2025Z" fill="#1A70B4"/>
</svg>