<svg width="36" height="38" viewBox="0 0 36 38" fill="none" xmlns="http://www.w3.org/2000/svg">
<path d="M33 0H3C2.20435 0 1.44129 0.31607 0.87868 0.87868C0.31607 1.44129 0 2.20435 0 3V13.5C0 23.385 4.785 29.3756 8.79938 32.6606C13.1231 36.1969 17.4244 37.3988 17.6119 37.4475C17.8697 37.5176 18.1416 37.5176 18.3994 37.4475C18.5869 37.3988 22.8825 36.1969 27.2119 32.6606C31.215 29.3756 36 23.385 36 13.5V3C36 2.20435 35.6839 1.44129 35.1213 0.87868C34.5587 0.31607 33.7957 0 33 0ZM33 13.5C33 20.4506 30.4387 26.0925 25.3875 30.2663C23.1887 32.077 20.6879 33.486 18 34.4287C15.3473 33.5024 12.8774 32.1184 10.7025 30.3394C5.59125 26.1581 3 20.4937 3 13.5V3H33V13.5Z" fill="white"/>
</svg>
