<svg width="30" height="32" viewBox="0 0 30 32" fill="none" xmlns="http://www.w3.org/2000/svg">
<path d="M27.5 0H2.5C1.83696 0 1.20107 0.263392 0.732233 0.732233C0.263392 1.20107 0 1.83696 0 2.5V11.25C0 19.4875 3.9875 24.4797 7.33281 27.2172C10.9359 30.1641 14.5203 31.1656 14.6766 31.2062C14.8914 31.2647 15.118 31.2647 15.3328 31.2062C15.4891 31.1656 19.0688 30.1641 22.6766 27.2172C26.0125 24.4797 30 19.4875 30 11.25V2.5C30 1.83696 29.7366 1.20107 29.2678 0.732233C28.7989 0.263392 28.163 0 27.5 0ZM27.5 11.25C27.5 17.0422 25.3656 21.7437 21.1562 25.2219C19.3239 26.7308 17.2399 27.905 15 28.6906C12.7894 27.9187 10.7312 26.7653 8.91875 25.2828C4.65938 21.7984 2.5 17.0781 2.5 11.25V2.5H27.5V11.25Z" fill="#1A70B4"/>
</svg>
