<svg width="44" height="44" viewBox="0 0 44 44" fill="none" xmlns="http://www.w3.org/2000/svg">
<path d="M34.0539 22.6987L24.3826 19.125L20.8201 9.44625C20.6092 8.87312 20.2275 8.37849 19.7265 8.0291C19.2256 7.67971 18.6296 7.49238 18.0189 7.49238C17.4081 7.49238 16.8121 7.67971 16.3112 8.0291C15.8103 8.37849 15.4286 8.87312 15.2176 9.44625L11.6326 19.125L1.95387 22.6875C1.38074 22.8985 0.88611 23.2802 0.536721 23.7811C0.187332 24.282 0 24.878 0 25.4888C0 26.0995 0.187332 26.6955 0.536721 27.1964C0.88611 27.6973 1.38074 28.079 1.95387 28.29L11.6326 31.875L15.1951 41.5537C15.4061 42.1269 15.7878 42.6215 16.2887 42.9709C16.7896 43.3203 17.3856 43.5076 17.9964 43.5076C18.6071 43.5076 19.2031 43.3203 19.704 42.9709C20.205 42.6215 20.5867 42.1269 20.7976 41.5537L24.3826 31.875L34.0614 28.3125C34.6345 28.1015 35.1291 27.7198 35.4785 27.2189C35.8279 26.718 36.0152 26.122 36.0152 25.5112C36.0152 24.9005 35.8279 24.3045 35.4785 23.8036C35.1291 23.3027 34.6345 22.921 34.0614 22.71L34.0539 22.6987ZM22.6951 29.2913C22.4915 29.3663 22.3066 29.4846 22.1532 29.6381C21.9997 29.7915 21.8814 29.9764 21.8064 30.18L18.0076 40.4719L14.2164 30.1875C14.1415 29.9817 14.0224 29.7949 13.8676 29.6401C13.7127 29.4852 13.5259 29.3662 13.3201 29.2913L3.03575 25.5L13.3201 21.7087C13.5259 21.6338 13.7127 21.5148 13.8676 21.3599C14.0224 21.2051 14.1415 21.0183 14.2164 20.8125L18.0076 10.5281L21.7989 20.8125C21.8739 21.0161 21.9922 21.201 22.1457 21.3545C22.2991 21.5079 22.484 21.6262 22.6876 21.7013L32.9795 25.5L22.6951 29.2913ZM24.0076 6C24.0076 5.60218 24.1657 5.22064 24.447 4.93934C24.7283 4.65804 25.1098 4.5 25.5076 4.5H28.5076V1.5C28.5076 1.10218 28.6657 0.720644 28.947 0.43934C29.2283 0.158035 29.6098 0 30.0076 0C30.4054 0 30.787 0.158035 31.0683 0.43934C31.3496 0.720644 31.5076 1.10218 31.5076 1.5V4.5H34.5076C34.9054 4.5 35.287 4.65804 35.5683 4.93934C35.8496 5.22064 36.0076 5.60218 36.0076 6C36.0076 6.39782 35.8496 6.77936 35.5683 7.06066C35.287 7.34196 34.9054 7.5 34.5076 7.5H31.5076V10.5C31.5076 10.8978 31.3496 11.2794 31.0683 11.5607C30.787 11.842 30.4054 12 30.0076 12C29.6098 12 29.2283 11.842 28.947 11.5607C28.6657 11.2794 28.5076 10.8978 28.5076 10.5V7.5H25.5076C25.1098 7.5 24.7283 7.34196 24.447 7.06066C24.1657 6.77936 24.0076 6.39782 24.0076 6ZM43.5076 15C43.5076 15.3978 43.3496 15.7794 43.0683 16.0607C42.787 16.342 42.4054 16.5 42.0076 16.5H40.5076V18C40.5076 18.3978 40.3496 18.7794 40.0683 19.0607C39.787 19.342 39.4054 19.5 39.0076 19.5C38.6098 19.5 38.2283 19.342 37.947 19.0607C37.6657 18.7794 37.5076 18.3978 37.5076 18V16.5H36.0076C35.6098 16.5 35.2283 16.342 34.947 16.0607C34.6657 15.7794 34.5076 15.3978 34.5076 15C34.5076 14.6022 34.6657 14.2206 34.947 13.9393C35.2283 13.658 35.6098 13.5 36.0076 13.5H37.5076V12C37.5076 11.6022 37.6657 11.2206 37.947 10.9393C38.2283 10.658 38.6098 10.5 39.0076 10.5C39.4054 10.5 39.787 10.658 40.0683 10.9393C40.3496 11.2206 40.5076 11.6022 40.5076 12V13.5H42.0076C42.4054 13.5 42.787 13.658 43.0683 13.9393C43.3496 14.2206 43.5076 14.6022 43.5076 15Z" fill="white"/>
</svg>
