<svg width="38" height="33" viewBox="0 0 38 33" fill="none" xmlns="http://www.w3.org/2000/svg">
<path d="M36.25 30.0016H33.75V12.5016C33.75 11.8386 33.4866 11.2027 33.0178 10.7339C32.5489 10.265 31.913 10.0016 31.25 10.0016H21.25V2.50163C21.2503 2.04891 21.1277 1.60461 20.8952 1.21616C20.6627 0.827698 20.3291 0.509659 19.93 0.295985C19.5308 0.0823106 19.0812 -0.0189782 18.629 0.00292948C18.1768 0.0248372 17.7391 0.169119 17.3625 0.420375L4.8625 8.75163C4.51959 8.98041 4.23858 9.29043 4.04448 9.6541C3.85038 10.0178 3.74922 10.4238 3.75 10.836V30.0016H1.25C0.918479 30.0016 0.600537 30.1333 0.366116 30.3677C0.131696 30.6022 0 30.9201 0 31.2516C0 31.5831 0.131696 31.9011 0.366116 32.1355C0.600537 32.3699 0.918479 32.5016 1.25 32.5016H36.25C36.5815 32.5016 36.8995 32.3699 37.1339 32.1355C37.3683 31.9011 37.5 31.5831 37.5 31.2516C37.5 30.9201 37.3683 30.6022 37.1339 30.3677C36.8995 30.1333 36.5815 30.0016 36.25 30.0016ZM31.25 12.5016V30.0016H21.25V12.5016H31.25ZM6.25 10.836L18.75 2.50163V30.0016H6.25V10.836ZM16.25 15.0016V17.5016C16.25 17.8331 16.1183 18.1511 15.8839 18.3855C15.6495 18.6199 15.3315 18.7516 15 18.7516C14.6685 18.7516 14.3505 18.6199 14.1161 18.3855C13.8817 18.1511 13.75 17.8331 13.75 17.5016V15.0016C13.75 14.6701 13.8817 14.3522 14.1161 14.1177C14.3505 13.8833 14.6685 13.7516 15 13.7516C15.3315 13.7516 15.6495 13.8833 15.8839 14.1177C16.1183 14.3522 16.25 14.6701 16.25 15.0016ZM11.25 15.0016V17.5016C11.25 17.8331 11.1183 18.1511 10.8839 18.3855C10.6495 18.6199 10.3315 18.7516 10 18.7516C9.66848 18.7516 9.35054 18.6199 9.11612 18.3855C8.8817 18.1511 8.75 17.8331 8.75 17.5016V15.0016C8.75 14.6701 8.8817 14.3522 9.11612 14.1177C9.35054 13.8833 9.66848 13.7516 10 13.7516C10.3315 13.7516 10.6495 13.8833 10.8839 14.1177C11.1183 14.3522 11.25 14.6701 11.25 15.0016ZM11.25 23.7516V26.2516C11.25 26.5831 11.1183 26.9011 10.8839 27.1355C10.6495 27.3699 10.3315 27.5016 10 27.5016C9.66848 27.5016 9.35054 27.3699 9.11612 27.1355C8.8817 26.9011 8.75 26.5831 8.75 26.2516V23.7516C8.75 23.4201 8.8817 23.1022 9.11612 22.8677C9.35054 22.6333 9.66848 22.5016 10 22.5016C10.3315 22.5016 10.6495 22.6333 10.8839 22.8677C11.1183 23.1022 11.25 23.4201 11.25 23.7516ZM16.25 23.7516V26.2516C16.25 26.5831 16.1183 26.9011 15.8839 27.1355C15.6495 27.3699 15.3315 27.5016 15 27.5016C14.6685 27.5016 14.3505 27.3699 14.1161 27.1355C13.8817 26.9011 13.75 26.5831 13.75 26.2516V23.7516C13.75 23.4201 13.8817 23.1022 14.1161 22.8677C14.3505 22.6333 14.6685 22.5016 15 22.5016C15.3315 22.5016 15.6495 22.6333 15.8839 22.8677C16.1183 23.1022 16.25 23.4201 16.25 23.7516Z" fill="white"/>
</svg>