<svg width="33" height="33" viewBox="0 0 33 33" fill="none" xmlns="http://www.w3.org/2000/svg">
<path d="M16.25 0C13.0361 0 9.89429 0.953046 7.22199 2.73862C4.54969 4.52419 2.46689 7.06209 1.23696 10.0314C0.00704087 13.0007 -0.314763 16.268 0.312247 19.4202C0.939256 22.5724 2.48692 25.4679 4.75952 27.7405C7.03213 30.0131 9.9276 31.5607 13.0798 32.1878C16.232 32.8148 19.4993 32.493 22.4686 31.263C25.4379 30.0331 27.9758 27.9503 29.7614 25.278C31.547 22.6057 32.5 19.4639 32.5 16.25C32.4955 11.9416 30.7819 7.81102 27.7355 4.76454C24.689 1.71806 20.5584 0.00454972 16.25 0ZM30 16.25C30.0014 18.014 29.6618 19.7617 29 21.3969L22.0156 17.1016C21.7187 16.9183 21.3865 16.7996 21.0406 16.7531L17.475 16.2719C16.9837 16.2078 16.4844 16.2902 16.0397 16.5086C15.5949 16.7271 15.2246 17.072 14.975 17.5H13.6125L13.0188 16.2719C12.8546 15.9299 12.6144 15.63 12.3165 15.3952C12.0186 15.1604 11.6709 14.9969 11.3 14.9172L10.05 14.6469L11.2719 12.5H13.8828C14.3053 12.4992 14.7208 12.3917 15.0906 12.1875L17.0047 11.1312C17.1729 11.0375 17.3301 10.9254 17.4734 10.7969L21.6781 6.99375C22.0997 6.61596 22.3799 6.10575 22.4725 5.5473C22.5651 4.98885 22.4646 4.41551 22.1875 3.92187L22.1313 3.82031C24.4841 4.93593 26.4722 6.69593 27.865 8.89602C29.2578 11.0961 29.9981 13.6461 30 16.25ZM18.6422 2.70937L20 5.14062L15.7953 8.94375L13.8828 10H11.2719C10.8324 9.99935 10.4005 10.1146 10.0198 10.334C9.63904 10.5535 9.32287 10.8694 9.10313 11.25L7.73907 13.6297L6.15313 9.40469L7.86251 5.3625C9.37554 4.19343 11.1161 3.35328 12.9726 2.89586C14.8292 2.43845 16.7608 2.37387 18.6438 2.70625L18.6422 2.70937ZM2.50001 16.25C2.49792 14.2063 2.95388 12.1881 3.83438 10.3438L5.60626 15.0734C5.75392 15.465 5.99753 15.8133 6.31475 16.0863C6.63197 16.3593 7.01265 16.5483 7.42188 16.6359L10.7703 17.3563L11.3656 18.5938C11.5722 19.0146 11.8924 19.3694 12.29 19.6179C12.6876 19.8664 13.1468 19.9987 13.6156 20H13.8469L12.7172 22.5359C12.5181 22.9825 12.4544 23.4776 12.5338 23.96C12.6132 24.4423 12.8324 24.8909 13.1641 25.25L13.1859 25.2719L16.25 28.4281L15.9469 29.9906C12.356 29.9071 8.93994 28.4234 6.4277 25.8563C3.91545 23.2892 2.50597 19.8419 2.50001 16.25ZM18.5281 29.8094L18.7047 28.9016C18.7773 28.5159 18.7585 28.1186 18.65 27.7414C18.5415 27.3643 18.3462 27.0178 18.0797 26.7297C18.072 26.7228 18.0647 26.7155 18.0578 26.7078L15 23.5531L17.1406 18.75L20.7063 19.2313L27.85 23.625C26.815 25.2504 25.4506 26.6406 23.845 27.7058C22.2393 28.7711 20.428 29.4877 18.5281 29.8094Z" fill="white"/>
</svg>
