<svg width="38" height="30" viewBox="0 0 38 30" fill="none" xmlns="http://www.w3.org/2000/svg">
<path d="M35 3.75H31.25V1.25C31.25 0.918479 31.1183 0.600537 30.8839 0.366117C30.6495 0.131696 30.3315 0 30 0H7.5C7.16848 0 6.85054 0.131696 6.61612 0.366117C6.3817 0.600537 6.25 0.918479 6.25 1.25V3.75H2.5C1.83696 3.75 1.20107 4.01339 0.732233 4.48223C0.263392 4.95107 0 5.58696 0 6.25V8.75C0 10.4076 0.65848 11.9973 1.83058 13.1694C2.41095 13.7498 3.09994 14.2102 3.85823 14.5242C4.61651 14.8383 5.42924 15 6.25 15H6.82031C7.55664 17.3335 8.96057 19.4 10.8586 20.9443C12.7566 22.4885 15.0655 23.4428 17.5 23.6891V27.5H13.75C13.4185 27.5 13.1005 27.6317 12.8661 27.8661C12.6317 28.1005 12.5 28.4185 12.5 28.75C12.5 29.0815 12.6317 29.3995 12.8661 29.6339C13.1005 29.8683 13.4185 30 13.75 30H23.75C24.0815 30 24.3995 29.8683 24.6339 29.6339C24.8683 29.3995 25 29.0815 25 28.75C25 28.4185 24.8683 28.1005 24.6339 27.8661C24.3995 27.6317 24.0815 27.5 23.75 27.5H20V23.6844C24.9906 23.1797 29.1313 19.6781 30.6375 15H31.25C32.9076 15 34.4973 14.3415 35.6694 13.1694C36.8415 11.9973 37.5 10.4076 37.5 8.75V6.25C37.5 5.58696 37.2366 4.95107 36.7678 4.48223C36.2989 4.01339 35.663 3.75 35 3.75ZM6.25 12.5C5.25544 12.5 4.30161 12.1049 3.59835 11.4017C2.89509 10.6984 2.5 9.74456 2.5 8.75V6.25H6.25V11.25C6.25 11.6667 6.27031 12.0833 6.31094 12.5H6.25ZM28.75 11.1094C28.75 16.6594 24.2188 21.2094 18.75 21.25C16.0978 21.25 13.5543 20.1964 11.6789 18.3211C9.80357 16.4457 8.75 13.9022 8.75 11.25V2.5H28.75V11.1094ZM35 8.75C35 9.74456 34.6049 10.6984 33.9016 11.4017C33.1984 12.1049 32.2446 12.5 31.25 12.5H31.1719C31.2232 12.0382 31.2493 11.574 31.25 11.1094V6.25H35V8.75Z" fill="white"/>
</svg>
