<svg width="28" height="38" viewBox="0 0 28 38" fill="none" xmlns="http://www.w3.org/2000/svg">
<path d="M27.4746 17.2078C27.4272 17.0075 27.3312 16.8219 27.1949 16.6676C27.0586 16.5133 26.8863 16.3951 26.6933 16.3234L17.6917 12.9469L19.9824 1.48905C20.0342 1.22283 19.9981 0.946969 19.8794 0.703085C19.7608 0.459201 19.566 0.26053 19.3245 0.137053C19.083 0.0135763 18.8079 -0.0280072 18.5407 0.0185776C18.2736 0.0651624 18.0288 0.197388 17.8433 0.395301L0.343313 19.1453C0.20118 19.2951 0.0983596 19.4777 0.0440374 19.6769C-0.0102848 19.8761 -0.0144168 20.0857 0.0320109 20.2869C0.0784387 20.488 0.17398 20.6746 0.310099 20.8298C0.446218 20.9851 0.618676 21.1042 0.812064 21.1766L9.81675 24.5531L7.53238 35.9984C7.48051 36.2646 7.51663 36.5405 7.6353 36.7844C7.75397 37.0283 7.94874 37.227 8.19023 37.3504C8.43172 37.4739 8.70681 37.5155 8.974 37.4689C9.24119 37.4223 9.48599 37.2901 9.67144 37.0922L27.1714 18.3422C27.311 18.1924 27.4116 18.0106 27.4645 17.8128C27.5173 17.615 27.5208 17.4072 27.4746 17.2078ZM10.8464 32.1812L12.4824 23.9969C12.5409 23.7066 12.4945 23.405 12.3515 23.1457C12.2084 22.8865 11.9779 22.6864 11.7011 22.5812L3.44488 19.4797L16.6667 5.31405L15.0324 13.4984C14.9738 13.7887 15.0202 14.0903 15.1633 14.3496C15.3064 14.6088 15.5368 14.8089 15.8136 14.9141L24.0636 18.0078L10.8464 32.1812Z" fill="#1A70B4"/>
</svg>
