<svg width="30" height="35" viewBox="0 0 30 35" fill="none" xmlns="http://www.w3.org/2000/svg">
<path d="M18.7491 33.7519C18.7491 34.0835 18.6174 34.4014 18.383 34.6358C18.1486 34.8703 17.8307 35.0019 17.4991 35.0019H12.4991C12.1676 35.0019 11.8497 34.8703 11.6153 34.6358C11.3808 34.4014 11.2491 34.0835 11.2491 33.7519C11.2491 33.4204 11.3808 33.1025 11.6153 32.8681C11.8497 32.6336 12.1676 32.5019 12.4991 32.5019H17.4991C17.8307 32.5019 18.1486 32.6336 18.383 32.8681C18.6174 33.1025 18.7491 33.4204 18.7491 33.7519ZM14.9991 16.2519C15.37 16.2519 15.7325 16.142 16.0408 15.936C16.3492 15.7299 16.5895 15.4371 16.7314 15.0945C16.8733 14.7519 16.9105 14.3749 16.8381 14.0112C16.7658 13.6474 16.5872 13.3133 16.325 13.0511C16.0627 12.7889 15.7287 12.6103 15.3649 12.538C15.0012 12.4656 14.6242 12.5028 14.2816 12.6447C13.939 12.7866 13.6462 13.0269 13.4401 13.3353C13.2341 13.6436 13.1241 14.0061 13.1241 14.3769C13.1241 14.8742 13.3217 15.3511 13.6733 15.7028C14.0249 16.0544 14.5019 16.2519 14.9991 16.2519ZM29.9398 23.1004L28.0085 31.7926C27.9169 32.2053 27.7221 32.5881 27.4423 32.9051C27.1625 33.2221 26.8069 33.463 26.4087 33.6052C26.0105 33.7474 25.5828 33.7863 25.1655 33.7182C24.7482 33.6502 24.3549 33.4774 24.0226 33.216L19.7663 30.0019H10.2351L5.97571 33.216C5.64334 33.4774 5.25012 33.6502 4.83282 33.7182C4.41552 33.7863 3.98777 33.7474 3.58958 33.6052C3.1914 33.463 2.83578 33.2221 2.55599 32.9051C2.27621 32.5881 2.08139 32.2053 1.98977 31.7926L0.0585187 23.1004C-0.023401 22.7274 -0.0192621 22.3406 0.070622 21.9694C0.160506 21.5982 0.333773 21.2524 0.577269 20.9582L5.03977 15.6051C5.18955 13.6378 5.64119 11.7053 6.37883 9.87539C8.39446 4.82226 12.0038 1.65195 13.4679 0.523824C13.9061 0.184267 14.4448 0 14.9991 0C15.5535 0 16.0922 0.184267 16.5304 0.523824C17.9898 1.65195 21.6038 4.82226 23.6195 9.87539C24.3571 11.7053 24.8087 13.6378 24.9585 15.6051L29.421 20.9582C29.6645 21.2524 29.8378 21.5982 29.9277 21.9694C30.0175 22.3406 30.0217 22.7274 29.9398 23.1004ZM10.5351 27.5019H19.4632C22.7632 21.6363 23.3804 16.0207 21.2976 10.8019C19.4601 6.1957 16.0132 3.2832 14.9991 2.50195C13.982 3.2832 10.5351 6.1957 8.69758 10.8019C6.61789 16.0207 7.23508 21.6363 10.5351 27.5019ZM8.19133 28.416C6.50904 25.3587 5.48821 22.354 5.12883 19.4019L2.49914 22.5582L4.43039 31.2519L4.45852 31.2316L8.19133 28.416ZM27.4991 22.5582L24.8695 19.4019C24.5132 22.3478 23.4945 25.3525 21.8132 28.416L25.5398 31.2285L25.5679 31.2488L27.4991 22.5582Z" fill="white"/>
</svg>
