<svg width="27" height="27" viewBox="0 0 27 27" fill="none" xmlns="http://www.w3.org/2000/svg">
<path d="M24.7521 7.3994C26.1398 10.3017 26.4032 13.6151 25.4916 16.7001C24.5799 19.7852 22.5578 22.4232 19.8155 24.105C17.0733 25.7869 13.8052 26.3933 10.6421 25.8073C7.47899 25.2213 4.64506 23.4843 2.68728 20.9317C0.729489 18.3792 -0.213375 15.1918 0.0406575 11.9849C0.29469 8.77805 1.72761 5.77893 4.06286 3.5664C6.39812 1.35388 9.47016 0.0848007 12.6861 0.00409893C15.902 -0.0766028 19.0338 1.03679 21.4771 3.1294L24.3109 0.294404C24.4985 0.106763 24.753 0.00134782 25.0184 0.00134782C25.2837 0.00134782 25.5382 0.106763 25.7259 0.294404C25.9135 0.482044 26.0189 0.73654 26.0189 1.0019C26.0189 1.26727 25.9135 1.52176 25.7259 1.7094L13.7259 13.7094C13.5382 13.897 13.2837 14.0025 13.0184 14.0025C12.753 14.0025 12.4985 13.897 12.3109 13.7094C12.1232 13.5218 12.0178 13.2673 12.0178 13.0019C12.0178 12.7365 12.1232 12.482 12.3109 12.2944L15.7759 8.8294C14.8368 8.20835 13.7156 7.92239 12.5938 8.01784C11.472 8.11328 10.4153 8.58453 9.59464 9.3553C8.774 10.1261 8.23751 11.1513 8.07202 12.2649C7.90653 13.3785 8.12172 14.5154 8.68277 15.4915C9.24381 16.4676 10.1179 17.2258 11.1634 17.6433C12.209 18.0608 13.3649 18.1133 14.444 17.7921C15.523 17.4709 16.4621 16.795 17.1093 15.8737C17.7564 14.9524 18.0736 13.8397 18.0096 12.7157C18.0022 12.5843 18.0208 12.4528 18.0642 12.3287C18.1076 12.2045 18.1751 12.0902 18.2627 11.9921C18.3504 11.894 18.4565 11.8141 18.575 11.757C18.6935 11.7 18.8221 11.6668 18.9534 11.6594C19.2186 11.6445 19.4789 11.7355 19.677 11.9125C19.775 12.0002 19.8549 12.1063 19.912 12.2248C19.9691 12.3433 20.0022 12.4718 20.0096 12.6032C20.1008 14.1941 19.6464 15.7686 18.7215 17.0663C17.7966 18.364 16.4566 19.3073 14.923 19.7403C13.3893 20.1733 11.7538 20.07 10.2869 19.4475C8.81987 18.8251 7.60919 17.7207 6.85489 16.3169C6.1006 14.9132 5.84786 13.294 6.13845 11.7272C6.42904 10.1603 7.24555 8.7395 8.45304 7.69956C9.66054 6.65963 11.1867 6.06282 12.7794 6.00779C14.372 5.95276 15.9357 6.44279 17.2121 7.3969L20.0559 4.55315C17.9719 2.8229 15.3221 1.92361 12.6154 2.028C9.9088 2.13239 7.33615 3.23311 5.39161 5.11874C3.44707 7.00437 2.26776 9.54195 2.08018 12.2441C1.8926 14.9463 2.70998 17.6224 4.37532 19.7587C6.04067 21.8949 8.43656 23.3405 11.1028 23.8179C13.7691 24.2953 16.5177 23.7707 18.8208 22.345C21.1239 20.9193 22.819 18.693 23.5806 16.0936C24.3422 13.4942 24.1166 10.7051 22.9471 8.2619C22.8327 8.02255 22.8181 7.74756 22.9065 7.49743C22.9949 7.2473 23.179 7.04253 23.4184 6.92815C23.6577 6.81378 23.9327 6.79917 24.1828 6.88755C24.433 6.97593 24.6377 7.16005 24.7521 7.3994Z" fill="white"/>
</svg>