<svg width="28" height="38" viewBox="0 0 28 38" fill="none" xmlns="http://www.w3.org/2000/svg">
<path d="M27.5 13.7582C27.5014 11.441 26.9171 9.16103 25.8015 7.13008C24.6859 5.09913 23.0751 3.38305 21.1188 2.14124C19.1625 0.899433 16.924 0.172173 14.6114 0.0270106C12.2988 -0.118152 9.98694 0.323491 7.89068 1.31092C5.79441 2.29835 3.98169 3.79953 2.62088 5.67504C1.26006 7.55055 0.395301 9.73955 0.10691 12.0387C-0.18148 14.3379 0.115856 16.6726 0.9713 18.8261C1.82675 20.9796 3.21255 22.882 5 24.3566V36.2582C4.99985 36.4713 5.05422 36.681 5.15795 36.8673C5.26167 37.0535 5.41131 37.2101 5.59263 37.3222C5.77395 37.4344 5.98093 37.4982 6.19389 37.5078C6.40686 37.5174 6.61873 37.4723 6.80938 37.3769L13.75 33.9144L20.6922 37.3847C20.8662 37.468 21.0571 37.5102 21.25 37.5082C21.5815 37.5082 21.8995 37.3765 22.1339 37.1421C22.3683 36.9076 22.5 36.5897 22.5 36.2582V24.3566C24.064 23.0685 25.3234 21.4502 26.1878 19.6178C27.0523 17.7853 27.5004 15.7843 27.5 13.7582ZM2.5 13.7582C2.5 11.5331 3.1598 9.35805 4.39597 7.508C5.63213 5.65795 7.38914 4.21601 9.44481 3.36452C11.5005 2.51303 13.7625 2.29025 15.9448 2.72433C18.1271 3.15841 20.1316 4.22987 21.705 5.80321C23.2783 7.37655 24.3498 9.38111 24.7838 11.5634C25.2179 13.7457 24.9951 16.0077 24.1436 18.0634C23.2922 20.119 21.8502 21.876 20.0002 23.1122C18.1501 24.3484 15.975 25.0082 13.75 25.0082C10.7673 25.0049 7.90777 23.8185 5.79871 21.7095C3.68964 19.6004 2.50331 16.7408 2.5 13.7582ZM20 34.2363L14.3078 31.391C14.1342 31.3041 13.9426 31.2588 13.7484 31.2588C13.5542 31.2588 13.3627 31.3041 13.1891 31.391L7.5 34.2363V26.0035C9.43495 26.9925 11.577 27.5081 13.75 27.5081C15.923 27.5081 18.0651 26.9925 20 26.0035V34.2363ZM13.75 22.5082C15.4806 22.5082 17.1723 21.995 18.6112 21.0335C20.0502 20.0721 21.1717 18.7055 21.834 17.1066C22.4962 15.5078 22.6695 13.7485 22.3319 12.0511C21.9943 10.3538 21.1609 8.79469 19.9372 7.57098C18.7135 6.34727 17.1544 5.51391 15.457 5.17629C13.7597 4.83867 12.0004 5.01195 10.4015 5.67422C8.80267 6.33649 7.4361 7.458 6.47464 8.89693C5.51318 10.3359 5 12.0276 5 13.7582C5.00248 16.078 5.92515 18.3022 7.56556 19.9426C9.20596 21.583 11.4301 22.5057 13.75 22.5082ZM13.75 7.50817C14.9861 7.50817 16.1945 7.87472 17.2223 8.56148C18.2501 9.24824 19.0512 10.2244 19.5242 11.3664C19.9973 12.5084 20.1211 13.7651 19.8799 14.9775C19.6388 16.1899 19.0435 17.3035 18.1694 18.1776C17.2953 19.0517 16.1817 19.6469 14.9693 19.8881C13.7569 20.1292 12.5003 20.0055 11.3582 19.5324C10.2162 19.0594 9.24008 18.2583 8.55332 17.2305C7.86656 16.2027 7.5 14.9943 7.5 13.7582C7.5 12.1006 8.15848 10.5108 9.33058 9.33875C10.5027 8.16665 12.0924 7.50817 13.75 7.50817Z" fill="#9F4CCB"/>
</svg>
