<svg width="24" height="26" viewBox="0 0 24 26" fill="none" xmlns="http://www.w3.org/2000/svg">
<path d="M16.9973 25C16.9973 25.2652 16.8919 25.5196 16.7044 25.7071C16.5169 25.8946 16.2625 26 15.9973 26H7.9973C7.73209 26 7.47773 25.8946 7.2902 25.7071C7.10266 25.5196 6.9973 25.2652 6.9973 25C6.9973 24.7348 7.10266 24.4804 7.2902 24.2929C7.47773 24.1054 7.73209 24 7.9973 24H15.9973C16.2625 24 16.5169 24.1054 16.7044 24.2929C16.8919 24.4804 16.9973 24.7348 16.9973 25ZM23.7286 21C23.5551 21.3056 23.3031 21.5595 22.9988 21.7353C22.6945 21.911 22.3488 22.0024 21.9973 22H1.9973C1.64572 21.9995 1.30048 21.9064 0.996372 21.73C0.692264 21.5535 0.440037 21.3 0.265113 20.9951C0.0901897 20.6901 -0.00124918 20.3444 1.28896e-05 19.9928C0.00127495 19.6412 0.0951935 19.2962 0.272302 18.9925C0.966052 17.7975 1.9973 14.4175 1.9973 10C1.9973 7.34784 3.05087 4.8043 4.92623 2.92893C6.8016 1.05357 9.34514 0 11.9973 0C14.6495 0 17.193 1.05357 19.0684 2.92893C20.9437 4.8043 21.9973 7.34784 21.9973 10C21.9973 14.4163 23.0298 17.7975 23.7236 18.9925C23.9024 19.2966 23.9971 19.6429 23.9977 19.9957C23.9984 20.3486 23.905 20.6952 23.7273 21H23.7286ZM21.9973 20C21.0311 18.3412 19.9973 14.5063 19.9973 10C19.9973 7.87827 19.1545 5.84344 17.6542 4.34315C16.1539 2.84285 14.119 2 11.9973 2C9.87557 2 7.84074 2.84285 6.34045 4.34315C4.84016 5.84344 3.9973 7.87827 3.9973 10C3.9973 14.5075 2.9623 18.3425 1.9973 20H21.9973Z" fill="white"/>
</svg>
