<svg width="33" height="33" viewBox="0 0 33 33" fill="none" xmlns="http://www.w3.org/2000/svg">
<path d="M23.3844 11.6156C23.5006 11.7317 23.5928 11.8696 23.6557 12.0213C23.7186 12.1731 23.751 12.3357 23.751 12.5C23.751 12.6643 23.7186 12.8269 23.6557 12.9787C23.5928 13.1304 23.5006 13.2683 23.3844 13.3844L14.6344 22.1344C14.5183 22.2506 14.3804 22.3428 14.2287 22.4057C14.0769 22.4686 13.9143 22.501 13.75 22.501C13.5857 22.501 13.4231 22.4686 13.2713 22.4057C13.1196 22.3428 12.9817 22.2506 12.8656 22.1344L9.11563 18.3844C8.88108 18.1498 8.74931 17.8317 8.74931 17.5C8.74931 17.1683 8.88108 16.8502 9.11563 16.6156C9.35018 16.3811 9.6683 16.2493 10 16.2493C10.3317 16.2493 10.6498 16.3811 10.8844 16.6156L13.75 19.4828L21.6156 11.6156C21.7317 11.4994 21.8696 11.4072 22.0213 11.3443C22.1731 11.2814 22.3357 11.249 22.5 11.249C22.6643 11.249 22.8269 11.2814 22.9787 11.3443C23.1304 11.4072 23.2683 11.4994 23.3844 11.6156ZM32.5 16.25C32.5 19.4639 31.547 22.6057 29.7614 25.278C27.9758 27.9503 25.4379 30.0331 22.4686 31.263C19.4993 32.493 16.232 32.8148 13.0798 32.1878C9.9276 31.5607 7.03213 30.0131 4.75952 27.7405C2.48692 25.4679 0.939256 22.5724 0.312247 19.4202C-0.314763 16.268 0.00704087 13.0007 1.23696 10.0314C2.46689 7.06209 4.54969 4.52419 7.22199 2.73862C9.89429 0.953046 13.0361 0 16.25 0C20.5584 0.00454972 24.689 1.71806 27.7355 4.76454C30.7819 7.81102 32.4955 11.9416 32.5 16.25ZM30 16.25C30 13.5305 29.1936 10.8721 27.6827 8.61091C26.1718 6.34973 24.0244 4.58736 21.5119 3.54666C18.9994 2.50595 16.2348 2.23366 13.5675 2.7642C10.9003 3.29475 8.45026 4.60431 6.52729 6.52728C4.60432 8.45025 3.29476 10.9003 2.76421 13.5675C2.23366 16.2347 2.50596 18.9994 3.54666 21.5119C4.58737 24.0244 6.34974 26.1718 8.61092 27.6827C10.8721 29.1936 13.5305 30 16.25 30C19.8955 29.9959 23.3904 28.5459 25.9682 25.9682C28.5459 23.3904 29.9959 19.8955 30 16.25Z" fill="#1A70B4"/>
</svg>
