<svg width="35" height="33" viewBox="0 0 35 33" fill="none" xmlns="http://www.w3.org/2000/svg">
<path d="M17.5027 8.75323C16.0194 8.75323 14.5693 9.19309 13.336 10.0172C12.1026 10.8413 11.1413 12.0127 10.5736 13.3831C10.006 14.7535 9.85746 16.2615 10.1468 17.7164C10.4362 19.1713 11.1505 20.5076 12.1994 21.5565C13.2483 22.6054 14.5847 23.3197 16.0396 23.6091C17.4944 23.8985 19.0024 23.75 20.3729 23.1823C21.7433 22.6147 22.9146 21.6534 23.7388 20.42C24.5629 19.1866 25.0027 17.7366 25.0027 16.2532C25.0007 14.2647 24.2098 12.3583 22.8038 10.9522C21.3977 9.54613 19.4912 8.75529 17.5027 8.75323ZM17.5027 21.2532C16.5138 21.2532 15.5471 20.96 14.7249 20.4106C13.9026 19.8612 13.2618 19.0803 12.8833 18.1666C12.5049 17.253 12.4059 16.2477 12.5988 15.2778C12.7917 14.3079 13.2679 13.417 13.9672 12.7177C14.6665 12.0184 15.5574 11.5422 16.5273 11.3493C17.4972 11.1564 18.5025 11.2554 19.4162 11.6338C20.3298 12.0123 21.1107 12.6531 21.6601 13.4754C22.2095 14.2976 22.5027 15.2643 22.5027 16.2532C22.5027 17.5793 21.976 18.8511 21.0383 19.7888C20.1006 20.7264 18.8288 21.2532 17.5027 21.2532ZM34.6809 13.0048C34.646 12.8288 34.5737 12.6623 34.4689 12.5167C34.364 12.3711 34.229 12.2498 34.0731 12.161L29.4121 9.50479L29.3934 4.25166C29.3928 4.07075 29.353 3.89211 29.2766 3.72809C29.2003 3.56407 29.0892 3.41858 28.9512 3.30166C27.2604 1.8715 25.3134 0.775516 23.2137 0.0719754C23.0483 0.0160063 22.8731 -0.00470629 22.6992 0.0111715C22.5254 0.0270492 22.3568 0.0791653 22.2043 0.164163L17.5027 2.79229L12.7965 0.159475C12.6439 0.0739991 12.4751 0.0214894 12.301 0.00534064C12.1268 -0.0108081 11.9512 0.0097633 11.7856 0.0657252C9.68734 0.774409 7.74257 1.87458 6.0543 3.30791C5.91644 3.42466 5.80552 3.5699 5.72918 3.73363C5.65285 3.89736 5.61291 4.0757 5.61211 4.25635L5.58868 9.51416L0.927739 12.1704C0.771804 12.2592 0.636808 12.3805 0.531929 12.5261C0.427049 12.6717 0.354744 12.8381 0.319926 13.0142C-0.106642 15.1577 -0.106642 17.3643 0.319926 19.5079C0.354744 19.6839 0.427049 19.8504 0.531929 19.996C0.636808 20.1416 0.771804 20.2629 0.927739 20.3517L5.58868 23.0079L5.60743 28.261C5.60799 28.442 5.64782 28.6206 5.72417 28.7846C5.80051 28.9486 5.91155 29.0941 6.04961 29.211C7.74035 30.6412 9.68736 31.7372 11.7871 32.4407C11.9525 32.4967 12.1277 32.5174 12.3016 32.5015C12.4754 32.4857 12.644 32.4335 12.7965 32.3485L17.5027 29.7142L22.209 32.347C22.3952 32.4507 22.6052 32.5046 22.8184 32.5032C22.9549 32.5032 23.0905 32.481 23.2199 32.4376C25.3179 31.7299 27.2627 30.6308 28.9512 29.1985C29.089 29.0818 29.2 28.9366 29.2763 28.7728C29.3526 28.6091 29.3926 28.4308 29.3934 28.2501L29.4168 22.9923L34.0777 20.336C34.2337 20.2473 34.3687 20.126 34.4735 19.9804C34.5784 19.8348 34.6507 19.6683 34.6856 19.4923C35.1097 17.3504 35.1082 15.146 34.6809 13.0048ZM32.3371 18.4595L27.8731 20.9985C27.6775 21.1098 27.5155 21.2717 27.4043 21.4673C27.3137 21.6235 27.2184 21.7892 27.1215 21.9454C26.9975 22.1425 26.9314 22.3704 26.9309 22.6032L26.9074 27.6423C25.7075 28.5846 24.3708 29.338 22.9434 29.8767L18.4402 27.3673C18.2533 27.2638 18.043 27.2101 17.8293 27.211H17.7996C17.6105 27.211 17.4199 27.211 17.2309 27.211C17.0072 27.2055 16.7862 27.2594 16.5902 27.3673L12.084 29.8829C10.6535 29.3484 9.31309 28.5986 8.10899 27.6595L8.0918 22.6282C8.09103 22.395 8.025 22.1665 7.90118 21.9689C7.8043 21.8126 7.70899 21.6564 7.61993 21.4907C7.50949 21.2921 7.34756 21.1269 7.15118 21.0126L2.68243 18.4673C2.45118 17.0045 2.45118 15.5145 2.68243 14.0517L7.13868 11.5079C7.33427 11.3967 7.49621 11.2348 7.60743 11.0392C7.69805 10.8829 7.79336 10.7173 7.89024 10.561C8.01424 10.364 8.0803 10.136 8.08086 9.90322L8.1043 4.86416C9.30419 3.92189 10.641 3.16841 12.0684 2.62979L16.5652 5.13916C16.7609 5.24765 16.9822 5.30161 17.2059 5.29541C17.3949 5.29541 17.5856 5.29541 17.7746 5.29541C17.9982 5.301 18.2193 5.24708 18.4152 5.13916L22.9215 2.62354C24.3519 3.15803 25.6924 3.90782 26.8965 4.84698L26.9137 9.87822C26.9144 10.1115 26.9805 10.3399 27.1043 10.5376C27.2012 10.6939 27.2965 10.8501 27.3856 11.0157C27.496 11.2143 27.6579 11.3795 27.8543 11.4939L32.3231 14.0392C32.5574 15.5031 32.56 16.9947 32.3309 18.4595H32.3371Z" fill="#4FB13E"/>
</svg>
