<svg width="42" height="27" viewBox="0 0 42 27" fill="none" xmlns="http://www.w3.org/2000/svg">
<path d="M42.0008 1.5V13.5C42.0008 13.8978 41.8428 14.2794 41.5615 14.5607C41.2802 14.842 40.8987 15 40.5008 15C40.103 15 39.7215 14.842 39.4402 14.5607C39.1589 14.2794 39.0008 13.8978 39.0008 13.5V5.12062L23.5621 20.5613C23.4228 20.7007 23.2573 20.8114 23.0752 20.8868C22.8931 20.9623 22.698 21.0012 22.5008 21.0012C22.3037 21.0012 22.1085 20.9623 21.9264 20.8868C21.7443 20.8114 21.5789 20.7007 21.4396 20.5613L15.0008 14.1206L2.56208 26.5613C2.28062 26.8427 1.89888 27.0008 1.50083 27.0008C1.10279 27.0008 0.721045 26.8427 0.439584 26.5613C0.158123 26.2798 0 25.898 0 25.5C0 25.102 0.158123 24.7202 0.439584 24.4387L13.9396 10.9387C14.0789 10.7993 14.2443 10.6886 14.4264 10.6132C14.6085 10.5377 14.8037 10.4988 15.0008 10.4988C15.198 10.4988 15.3931 10.5377 15.5752 10.6132C15.7573 10.6886 15.9228 10.7993 16.0621 10.9387L22.5008 17.3794L36.8802 3H28.5008C28.103 3 27.7215 2.84196 27.4402 2.56066C27.1589 2.27936 27.0008 1.89782 27.0008 1.5C27.0008 1.10218 27.1589 0.720645 27.4402 0.43934C27.7215 0.158036 28.103 0 28.5008 0H40.5008C40.8987 0 41.2802 0.158036 41.5615 0.43934C41.8428 0.720645 42.0008 1.10218 42.0008 1.5Z" fill="white"/>
</svg>
