<svg width="477" height="215" viewBox="0 0 477 215" fill="none" xmlns="http://www.w3.org/2000/svg">
<g clip-path="url(#clip0_1858_467)">
<g filter="url(#filter0_d_1858_467)">
<path fill-rule="evenodd" clip-rule="evenodd" d="M52.4836 58.1182H83.2973V98.5794L52.1682 118.875L52.4836 58.1182Z" fill="#1A70B4"/>
<path fill-rule="evenodd" clip-rule="evenodd" d="M52.3261 124.083L157.881 56.5615L52.1682 149.951L52.3261 124.083Z" fill="#D9DADA"/>
<path fill-rule="evenodd" clip-rule="evenodd" d="M69.0571 141.462L92.4426 122.624L141.585 157.778L91.3367 158.442L69.0571 141.462Z" fill="#FFC711"/>
<path d="M198.058 72.3506V129.117H185.672V72.3506H198.058ZM198.362 100.28L227.946 72.3506H243.677L212.149 100.024L244.167 129.117H227.642L198.362 100.28L198.362 100.28ZM269.916 87.146C275.255 87.146 279.85 87.9986 283.669 89.6861C287.504 91.3723 290.41 93.8422 292.387 97.1039C294.363 100.352 295.361 104.252 295.361 108.79C295.361 112.038 294.786 114.931 293.62 117.485C292.471 120.024 290.782 122.209 288.585 124.008C286.373 125.797 283.651 127.186 280.425 128.152C277.214 129.131 273.615 129.615 269.611 129.615C264.239 129.615 259.642 128.791 255.824 127.158C252.005 125.528 249.116 123.13 247.14 119.952C245.162 116.775 244.167 112.988 244.167 108.593C244.167 105.373 244.756 102.422 245.941 99.7135C247.14 97.0184 248.828 94.7341 251.043 92.8779C253.257 91.0174 255.959 89.6009 259.135 88.6211C262.329 87.6425 265.912 87.1463 269.916 87.1463V87.146ZM269.713 94.8345C265.27 94.8345 261.857 95.9984 259.524 98.3092C257.176 100.621 256.01 104.012 256.01 108.508C256.01 112.875 257.159 116.224 259.473 118.522C261.788 120.819 265.201 121.969 269.712 121.969C274.224 121.969 277.653 120.833 279.985 118.562C282.298 116.293 283.465 112.961 283.465 108.593C283.465 104.123 282.298 100.72 279.951 98.3647C277.62 96.0111 274.207 94.8351 269.712 94.8351L269.713 94.8345ZM338.647 87.6849V72.3506H350.087V129.117H327.614C325.3 129.117 323.204 129.032 321.331 128.859C319.454 128.705 317.815 128.434 316.413 128.052C315.012 127.683 313.76 127.228 312.696 126.706C311.614 126.181 310.484 125.442 309.249 124.506C307.104 122.789 305.446 120.549 304.247 117.811C303.065 115.075 302.473 112.024 302.473 108.677C302.473 104.988 303.218 101.613 304.722 98.5475C306.225 95.4835 308.354 93.0594 311.091 91.2588C314.654 88.8746 319.843 87.6849 326.667 87.6849H338.647H338.647ZM338.647 121.555V95.2449H328.41C318.947 95.2449 314.217 99.528 314.217 108.096C314.217 112.634 315.315 116.011 317.527 118.237C319.742 120.45 323.103 121.556 327.614 121.556H338.647V121.555ZM401.906 104.264V111.825H372.711C372.861 113.799 373.2 115.329 373.722 116.421C374.231 117.514 375.076 118.522 376.276 119.43C377.457 120.209 378.809 120.762 380.348 121.073C381.884 121.401 383.98 121.555 386.614 121.555H401.905V129.117H384.487C379.891 129.117 376.276 128.732 373.589 127.951C370.919 127.173 368.537 125.84 366.424 123.924C365.124 122.762 364.059 121.428 363.23 119.94C362.386 118.434 361.711 116.791 361.22 115.003C360.73 113.217 360.477 111.401 360.477 109.542C360.477 106.023 361.153 102.719 362.506 99.6134C363.857 96.5079 365.749 94.0259 368.147 92.1666C370.193 90.6201 372.591 89.484 375.346 88.7611C378.099 88.0382 381.478 87.6846 385.467 87.6846H401.906V95.2443H386.818C383.675 95.2443 381.175 95.529 379.283 96.0819C377.406 96.6346 375.953 97.5564 374.925 98.8459C373.909 100.123 373.2 101.938 372.794 104.264H401.906V104.264ZM424.833 129.117H413.344V72.3509H424.833V129.117Z" fill="#D9DADA"/>
<path d="M262.254 152.297L262.069 152.928C261.465 153.038 260.964 153.093 260.577 153.093C260.207 153.093 259.593 153.058 258.741 152.997C258.096 152.952 257.525 152.928 257.01 152.928C256.131 152.928 255.226 152.997 254.291 153.128L254.476 152.519C255.365 152.444 256.013 152.288 256.416 152.053C256.708 151.882 256.955 151.592 257.163 151.183C257.372 150.768 257.839 149.34 258.571 146.882L260.261 141.008L260.351 140.73C259.834 140.711 259.44 140.705 259.179 140.705C257.547 140.705 256.258 140.858 255.303 141.154C254.345 141.449 253.628 141.877 253.146 142.44C252.669 142.999 252.43 143.604 252.43 144.256C252.43 144.488 252.474 144.696 252.574 144.889C252.642 145.019 252.836 145.235 253.156 145.53C253.452 145.805 253.602 146.056 253.602 146.285C253.602 146.487 253.516 146.656 253.342 146.797C253.164 146.936 252.953 147.008 252.704 147.008C252.335 147.008 252.038 146.855 251.808 146.56C251.475 146.127 251.307 145.573 251.307 144.899C251.307 143.999 251.637 143.12 252.305 142.273C252.968 141.422 253.882 140.76 255.045 140.296C256.208 139.832 257.619 139.601 259.282 139.601C260.076 139.601 261.338 139.695 263.075 139.887C264.305 140.019 265.203 140.085 265.758 140.085C266.312 140.085 266.704 140.008 266.929 139.854C267.159 139.7 267.277 139.491 267.277 139.233C267.277 139.181 267.263 139.079 267.236 138.922C267.208 138.785 267.196 138.69 267.196 138.647C267.196 138.445 267.277 138.279 267.433 138.146C267.593 138.014 267.781 137.946 268.001 137.946C268.263 137.946 268.485 138.025 268.657 138.189C268.827 138.351 268.913 138.572 268.913 138.843C268.913 139.408 268.556 139.893 267.843 140.296C267.126 140.705 265.938 140.906 264.265 140.906C263.665 140.906 263.024 140.884 262.349 140.841C262.258 141.108 261.983 142.008 261.514 143.545L260.365 147.382L259.666 149.723L258.94 152.395C259.53 152.455 260.017 152.484 260.405 152.484C260.996 152.484 261.613 152.419 262.253 152.297L262.254 152.297ZM275.595 150.577L275.938 150.984C275.131 151.743 274.296 152.341 273.444 152.784C272.864 153.085 272.381 153.239 272.001 153.239C271.695 153.239 271.447 153.136 271.258 152.928C271.068 152.72 270.973 152.398 270.973 151.963C270.973 151.668 271.045 151.237 271.189 150.673C271.333 150.103 271.75 148.892 272.425 147.028C272.727 146.111 272.876 145.576 272.876 145.423C272.876 145.168 272.727 145.044 272.425 145.044C272.056 145.044 271.595 145.2 271.04 145.509C270.265 145.936 269.576 146.487 268.98 147.154C268.602 147.581 268.295 148.215 268.066 149.058L267.01 152.917H265.04C265.465 151.622 265.792 150.565 266.019 149.744L267.961 142.625C268.314 141.319 268.778 140.311 269.355 139.604C269.931 138.897 270.685 138.338 271.615 137.912C272.542 137.491 273.462 137.28 274.367 137.28C274.747 137.28 275.045 137.359 275.265 137.514C275.486 137.668 275.594 137.862 275.594 138.102C275.594 138.304 275.486 138.477 275.274 138.628C275.057 138.778 274.764 138.853 274.395 138.853C274.184 138.853 273.908 138.835 273.575 138.803C272.817 138.711 272.293 138.665 272.001 138.665C271.601 138.665 271.267 138.806 271.013 139.078C270.757 139.349 270.492 139.992 270.221 141.008L268.741 146.487C269.787 145.562 270.927 144.782 272.163 144.147C272.885 143.767 273.466 143.579 273.903 143.579C274.246 143.579 274.518 143.665 274.711 143.839C274.905 144.014 275 144.256 275 144.565C275 144.815 274.966 145.07 274.896 145.32C274.782 145.755 274.513 146.545 274.089 147.693C273.516 149.275 273.183 150.258 273.077 150.641C272.979 151.027 272.93 151.37 272.93 151.676C272.93 151.793 272.952 151.881 273.002 151.938C273.047 152 273.119 152.03 273.218 152.03C273.429 152.03 273.826 151.817 274.408 151.398C274.732 151.167 275.13 150.896 275.594 150.577L275.595 150.577ZM283.815 150.145L284.252 150.632C282.093 152.355 280.243 153.214 278.702 153.214C278.075 153.214 277.602 153.038 277.268 152.686C276.939 152.33 276.772 151.758 276.772 150.974C276.772 149.392 277.344 147.816 278.489 146.25C279.775 144.472 281.312 143.579 283.101 143.579C283.725 143.579 284.203 143.711 284.537 143.971C284.864 144.238 285.027 144.598 285.027 145.055C285.027 145.536 284.834 146.008 284.437 146.473C284.04 146.941 283.331 147.424 282.308 147.927C281.799 148.169 280.704 148.61 279.03 149.247C278.955 149.648 278.913 150.026 278.913 150.389C278.913 150.914 279.013 151.279 279.21 151.486C279.409 151.695 279.698 151.797 280.077 151.797C280.439 151.797 280.834 151.712 281.267 151.544C281.843 151.313 282.697 150.846 283.815 150.146L283.815 150.145ZM279.193 148.536C280.609 148.003 281.672 147.432 282.389 146.818C282.871 146.387 283.115 145.962 283.115 145.544C283.115 145.224 283.017 144.971 282.818 144.783C282.619 144.591 282.361 144.499 282.042 144.499C281.718 144.499 281.402 144.604 281.091 144.807C280.681 145.084 280.33 145.499 280.05 146.055C279.644 146.862 279.36 147.693 279.193 148.536ZM301.037 143.412L301.908 143.257L300.915 146.064C300.523 147.178 300.149 148.464 299.792 149.923C299.6 150.713 299.504 151.223 299.504 151.451C299.504 151.682 299.613 151.796 299.834 151.796C299.973 151.796 300.198 151.72 300.511 151.565C301.056 151.287 301.579 150.954 302.08 150.545L302.502 150.974C301.497 151.742 300.857 152.212 300.572 152.376C300.01 152.696 299.472 152.938 298.964 153.093C298.63 153.194 298.301 153.249 297.985 153.249C297.755 153.249 297.584 153.203 297.472 153.118C297.354 153.027 297.301 152.899 297.301 152.728C297.301 152.618 297.337 152.465 297.403 152.272L297.931 150.766C297.173 151.528 296.273 152.183 295.226 152.728C294.581 153.066 293.99 153.238 293.454 153.238C292.945 153.238 292.552 153.085 292.277 152.783C291.908 152.376 291.723 151.844 291.723 151.184C291.723 150.403 291.976 149.531 292.471 148.571C292.967 147.609 293.635 146.736 294.474 145.952C295.308 145.166 296.19 144.591 297.115 144.22C297.828 143.941 298.742 143.801 299.86 143.801C300.145 143.801 300.429 143.814 300.723 143.848L301.037 143.412L301.037 143.412ZM299.401 145.11C298.922 145.028 298.521 144.988 298.198 144.988C297.403 144.988 296.713 145.171 296.124 145.536C295.533 145.903 294.987 146.56 294.477 147.51C293.973 148.461 293.72 149.407 293.72 150.352C293.72 150.857 293.818 151.22 294.022 151.442C294.224 151.664 294.491 151.774 294.816 151.774C295.424 151.774 296.075 151.501 296.773 150.947C297.467 150.398 297.976 149.603 298.301 148.571L299.401 145.11V145.11ZM305.834 152.928H303.864L304.788 149.945C305.24 148.481 305.632 147.092 305.965 145.775C306.046 145.447 306.082 145.248 306.082 145.164C306.082 144.988 305.987 144.899 305.795 144.899C305.664 144.899 305.461 144.974 305.185 145.127C304.915 145.277 304.419 145.651 303.706 146.25L303.297 145.862C304.144 145.103 304.989 144.533 305.825 144.15C306.669 143.771 307.314 143.579 307.764 143.579C307.922 143.579 308.045 143.612 308.138 143.673C308.229 143.738 308.279 143.815 308.279 143.913C308.279 144.008 308.219 144.262 308.106 144.676L307.539 146.663C308.426 145.487 309.433 144.483 310.551 143.647C311.087 143.247 311.535 143.051 311.895 143.051C312.161 143.051 312.38 143.12 312.556 143.264C312.734 143.408 312.824 143.575 312.824 143.767C312.824 143.968 312.737 144.138 312.561 144.279C312.391 144.417 311.962 144.585 311.277 144.778C310.623 144.962 310.095 145.184 309.686 145.441C309.275 145.701 308.824 146.095 308.338 146.629C307.85 147.162 307.507 147.623 307.314 148.021C307.12 148.416 306.823 149.335 306.431 150.778L305.835 152.928H305.834ZM315.199 141.895L317.299 141.215L316.349 144.324H319.081L318.874 145.111H316.137L314.974 148.824C314.612 149.942 314.433 150.717 314.433 151.152C314.433 151.352 314.484 151.498 314.586 151.584C314.686 151.677 314.825 151.721 315.002 151.721C315.276 151.721 315.691 151.584 316.255 151.306C316.999 150.948 317.702 150.536 318.369 150.077L318.874 150.59C316.944 151.806 315.656 152.553 315.002 152.828C314.352 153.101 313.825 153.239 313.433 153.239C313.104 153.239 312.846 153.139 312.658 152.939C312.468 152.74 312.373 152.414 312.373 151.963C312.373 151.429 312.54 150.621 312.874 149.527L314.236 145.111H312.097L312.331 144.324H314.461L315.199 141.895H315.199ZM332.648 143.601C333.509 143.601 334.226 143.888 334.799 144.469C335.372 145.043 335.66 145.845 335.66 146.87C335.66 148.515 334.974 149.988 333.598 151.294C332.224 152.598 330.772 153.249 329.24 153.249C328.298 153.249 327.539 152.992 326.962 152.473C326.386 151.954 326.098 151.251 326.098 150.352C326.098 148.802 326.625 147.367 327.679 146.055C329.01 144.417 330.665 143.6 332.648 143.6V143.601ZM331.525 144.434C330.776 144.434 330.05 144.886 329.352 145.783C328.653 146.677 328.302 147.919 328.302 149.501C328.302 150.462 328.518 151.221 328.952 151.775C329.267 152.184 329.69 152.381 330.217 152.381C330.957 152.381 331.628 152 332.237 151.231C333.013 150.233 333.402 148.994 333.402 147.516C333.402 146.407 333.221 145.616 332.864 145.141C332.509 144.666 332.061 144.434 331.525 144.434V144.434ZM337.359 144.324H340.521C341.039 142.474 341.633 141.1 342.301 140.2C342.972 139.293 343.843 138.581 344.916 138.063C345.99 137.543 347.004 137.279 347.955 137.279C348.491 137.279 348.897 137.37 349.173 137.547C349.442 137.722 349.577 137.935 349.577 138.181C349.577 138.401 349.488 138.587 349.303 138.732C349.118 138.881 348.874 138.957 348.577 138.957C348.266 138.957 347.686 138.878 346.83 138.72C346.408 138.65 346.08 138.611 345.839 138.611C345.259 138.611 344.735 138.911 344.271 139.516C343.802 140.118 343.429 140.933 343.148 141.962L342.486 144.323H345.976L345.765 145.11H342.234L340.15 152.184C339.506 154.335 338.478 155.965 337.062 157.074C335.651 158.186 334.118 158.738 332.459 158.738C331.905 158.738 331.485 158.646 331.201 158.464C330.912 158.288 330.768 158.059 330.768 157.795C330.768 157.567 330.867 157.382 331.066 157.244C331.264 157.109 331.548 157.044 331.918 157.044C332.102 157.044 332.378 157.062 332.739 157.097C333.356 157.161 333.946 157.195 334.51 157.195C335.38 157.195 336.016 157.027 336.409 156.682C336.805 156.338 337.202 155.499 337.598 154.158L340.281 145.111H337.126L337.359 144.324ZM366.54 142.293H365.836C365.909 141.915 365.944 141.618 365.944 141.396C365.944 141.1 365.795 140.906 365.503 140.812C365.204 140.72 364.096 140.674 362.166 140.674L360.236 140.687L358.771 145.59H361.507C362.37 145.59 362.901 145.53 363.1 145.424C363.298 145.32 363.437 145.049 363.528 144.622H364.28C363.997 145.517 363.749 146.501 363.528 147.572H362.851C362.897 147.222 362.92 146.954 362.92 146.759C362.92 146.683 362.856 146.58 362.735 146.462C362.672 146.401 362.559 146.362 362.392 146.341C362.153 146.303 361.784 146.284 361.282 146.284H358.574C357.788 148.797 356.976 150.768 356.129 152.195C356.95 151.981 357.676 151.874 358.31 151.874C359.366 151.874 360.66 152.016 362.194 152.296C363.006 152.448 363.555 152.529 363.843 152.529C364.231 152.529 364.542 152.445 364.781 152.284C365.019 152.12 365.138 151.935 365.138 151.731C365.138 151.61 365.082 151.422 364.966 151.151C364.899 150.966 364.862 150.796 364.862 150.632C364.862 150.462 364.943 150.312 365.106 150.175C365.268 150.044 365.461 149.98 365.692 149.98C365.966 149.98 366.191 150.064 366.372 150.243C366.553 150.422 366.643 150.656 366.643 150.954C366.643 151.583 366.313 152.131 365.66 152.604C365.001 153.078 364.14 153.316 363.063 153.316C362.5 153.316 361.786 153.277 360.925 153.194C359.033 153.013 357.585 152.927 356.593 152.927C355.289 152.927 353.765 153.013 352.022 153.194L352.233 152.583C353.27 152.341 353.883 152.157 354.068 152.045C354.252 151.932 354.405 151.761 354.533 151.543C354.952 150.839 355.502 149.432 356.175 147.317C356.85 145.202 357.535 142.97 358.23 140.619C357.175 140.619 356.175 140.83 355.231 141.25C354.289 141.671 353.555 142.219 353.027 142.898C352.5 143.575 352.233 144.287 352.233 145.032C352.233 145.351 352.27 145.626 352.347 145.863C352.419 146.101 352.59 146.434 352.855 146.861C353.022 147.121 353.105 147.33 353.105 147.492C353.105 147.656 353.022 147.804 352.86 147.927C352.699 148.052 352.495 148.118 352.261 148.118C351.918 148.118 351.644 147.969 351.44 147.683C351.142 147.26 350.992 146.691 350.992 145.962C350.992 144.409 351.692 143.017 353.089 141.784C354.493 140.547 356.53 139.93 359.209 139.93H363.739C365.305 139.93 366.463 139.847 367.212 139.675C366.859 140.904 366.635 141.777 366.539 142.293H366.54ZM375.533 150.519L375.813 151.163C373.716 152.546 371.946 153.239 370.502 153.239C369.737 153.239 369.181 153.007 368.83 152.548C368.482 152.092 368.312 151.511 368.312 150.807C368.312 149.641 368.681 148.438 369.421 147.204C370.16 145.971 371.057 145.025 372.111 144.366C372.942 143.859 373.876 143.6 374.912 143.6C375.567 143.6 376.057 143.703 376.395 143.913C376.73 144.119 376.896 144.369 376.896 144.665C376.896 144.896 376.805 145.083 376.631 145.224C376.455 145.369 376.211 145.441 375.891 145.441C375.585 145.441 375.188 145.323 374.705 145.09C374.2 144.834 373.786 144.709 373.448 144.709C373.019 144.709 372.587 144.877 372.162 145.202C371.733 145.53 371.329 146.171 370.942 147.117C370.553 148.064 370.36 149.012 370.36 149.966C370.36 150.667 370.522 151.212 370.847 151.593C371.086 151.895 371.42 152.044 371.852 152.044C372.88 152.044 374.111 151.536 375.535 150.519L375.533 150.519ZM383.275 143.59C384.06 143.59 384.665 143.719 385.092 143.971C385.517 144.23 385.733 144.519 385.733 144.853C385.733 145.055 385.642 145.23 385.463 145.377C385.282 145.524 385.062 145.594 384.809 145.594C384.642 145.594 384.493 145.563 384.371 145.505C384.25 145.441 384.074 145.283 383.844 145.032C383.41 144.551 382.981 144.312 382.563 144.312C382.203 144.312 381.883 144.425 381.603 144.66C381.327 144.891 381.188 145.183 381.188 145.529C381.188 145.833 381.278 146.128 381.454 146.415C381.63 146.696 382.071 147.157 382.788 147.796C383.763 148.665 384.254 149.495 384.254 150.277C384.254 151.061 383.858 151.747 383.064 152.333C382.271 152.924 381.252 153.213 379.999 153.213C378.953 153.213 378.171 153.037 377.663 152.676C377.153 152.316 376.895 151.879 376.895 151.352C376.895 151.094 376.992 150.88 377.185 150.71C377.378 150.539 377.619 150.454 377.902 150.454C378.145 150.454 378.357 150.525 378.533 150.659C378.709 150.796 378.799 150.953 378.799 151.14C378.799 151.215 378.79 151.312 378.772 151.428C378.763 151.528 378.758 151.604 378.758 151.676C378.758 151.916 378.881 152.126 379.127 152.296C379.366 152.465 379.691 152.547 380.106 152.547C380.58 152.547 380.999 152.481 381.359 152.344C381.72 152.209 382.004 151.999 382.207 151.722C382.41 151.446 382.509 151.173 382.509 150.898C382.509 150.632 382.414 150.362 382.224 150.1C382.036 149.834 381.612 149.391 380.948 148.779C380.034 147.924 379.579 147.099 379.579 146.306C379.579 145.583 379.925 144.949 380.621 144.405C381.315 143.86 382.203 143.589 383.275 143.589V143.59ZM389.827 141.895L391.927 141.215L390.977 144.324H393.709L393.501 145.111H390.765L389.602 148.824C389.24 149.942 389.061 150.717 389.061 151.152C389.061 151.352 389.11 151.498 389.215 151.584C389.313 151.677 389.452 151.721 389.628 151.721C389.904 151.721 390.319 151.584 390.883 151.306C391.626 150.948 392.329 150.536 392.997 150.077L393.501 150.59C391.572 151.806 390.282 152.553 389.628 152.828C388.979 153.101 388.452 153.239 388.06 153.239C387.73 153.239 387.475 153.139 387.285 152.939C387.095 152.74 387 152.414 387 151.963C387 151.429 387.168 150.621 387.501 149.527L388.863 145.111H386.726L386.96 144.324H389.088L389.828 141.895H389.827ZM403.79 143.412L404.66 143.257L403.669 146.064C403.277 147.178 402.901 148.464 402.546 149.923C402.353 150.713 402.258 151.223 402.258 151.451C402.258 151.682 402.365 151.796 402.586 151.796C402.727 151.796 402.952 151.72 403.263 151.565C403.808 151.287 404.331 150.954 404.831 150.545L405.254 150.974C404.249 151.742 403.611 152.212 403.326 152.376C402.762 152.696 402.226 152.938 401.716 153.093C401.382 153.194 401.052 153.249 400.738 153.249C400.509 153.249 400.337 153.203 400.224 153.118C400.107 153.027 400.054 152.899 400.054 152.728C400.054 152.618 400.089 152.465 400.157 152.272L400.684 150.766C399.927 151.528 399.025 152.183 397.978 152.728C397.333 153.066 396.744 153.238 396.207 153.238C395.697 153.238 395.305 153.085 395.029 152.783C394.66 152.376 394.475 151.844 394.475 151.184C394.475 150.403 394.728 149.531 395.224 148.571C395.721 147.609 396.387 146.736 397.225 145.952C398.06 145.166 398.944 144.591 399.867 144.22C400.58 143.941 401.495 143.801 402.614 143.801C402.897 143.801 403.182 143.814 403.475 143.848L403.79 143.412L403.79 143.412ZM402.154 145.11C401.674 145.028 401.275 144.988 400.95 144.988C400.156 144.988 399.465 145.171 398.876 145.536C398.285 145.903 397.741 146.56 397.231 147.51C396.725 148.461 396.472 149.407 396.472 150.352C396.472 150.857 396.572 151.22 396.774 151.442C396.978 151.664 397.244 151.774 397.568 151.774C398.177 151.774 398.825 151.501 399.525 150.947C400.219 150.398 400.728 149.603 401.052 148.571L402.154 145.11V145.11ZM411.943 143.59C412.726 143.59 413.331 143.719 413.758 143.971C414.183 144.23 414.399 144.519 414.399 144.853C414.399 145.055 414.308 145.23 414.129 145.377C413.948 145.524 413.727 145.594 413.475 145.594C413.309 145.594 413.159 145.563 413.038 145.505C412.915 145.441 412.739 145.283 412.51 145.032C412.078 144.551 411.649 144.312 411.229 144.312C410.869 144.312 410.549 144.425 410.269 144.66C409.995 144.891 409.853 145.183 409.853 145.529C409.853 145.833 409.944 146.128 410.12 146.415C410.296 146.696 410.739 147.157 411.454 147.796C412.43 148.665 412.92 149.495 412.92 150.277C412.92 151.061 412.524 151.747 411.73 152.333C410.937 152.924 409.918 153.213 408.665 153.213C407.619 153.213 406.839 153.037 406.329 152.676C405.819 152.316 405.561 151.879 405.561 151.352C405.561 151.094 405.658 150.88 405.851 150.71C406.043 150.539 406.284 150.454 406.568 150.454C406.811 150.454 407.023 150.525 407.199 150.659C407.375 150.796 407.465 150.953 407.465 151.14C407.465 151.215 407.456 151.312 407.438 151.428C407.428 151.528 407.424 151.604 407.424 151.676C407.424 151.916 407.547 152.126 407.793 152.296C408.032 152.465 408.357 152.547 408.772 152.547C409.245 152.547 409.665 152.481 410.026 152.344C410.387 152.209 410.67 151.999 410.874 151.722C411.077 151.446 411.175 151.173 411.175 150.898C411.175 150.632 411.08 150.362 410.89 150.1C410.702 149.834 410.278 149.391 409.616 148.779C408.7 147.924 408.245 147.099 408.245 146.306C408.245 145.583 408.593 144.949 409.286 144.405C409.98 143.86 410.869 143.589 411.943 143.589V143.59ZM414.757 145.852L414.331 145.333L415.31 144.779C416.261 144.23 416.927 143.878 417.315 143.722C417.537 143.636 417.74 143.59 417.926 143.59C418.11 143.59 418.285 143.682 418.451 143.859C419.227 144.676 419.882 145.786 420.409 147.178C420.936 148.571 421.203 149.923 421.203 151.231C421.203 151.401 421.194 151.658 421.175 152.009C422.664 149.704 423.407 147.881 423.407 146.53C423.407 146.248 423.33 145.876 423.182 145.409C423.024 144.891 422.943 144.519 422.943 144.302C422.943 144.084 423.024 143.907 423.191 143.767C423.354 143.628 423.556 143.555 423.804 143.555C424.11 143.555 424.358 143.657 424.547 143.859C424.737 144.054 424.833 144.34 424.833 144.709C424.833 145.665 424.576 146.853 424.052 148.277C423.534 149.7 422.718 151.229 421.604 152.865C420.489 154.506 419.471 155.72 418.551 156.516C417.632 157.308 416.743 157.879 415.882 158.222C415.026 158.565 414.214 158.738 413.448 158.738C412.866 158.738 412.429 158.646 412.131 158.464C411.838 158.288 411.689 158.066 411.689 157.817C411.689 157.593 411.806 157.405 412.031 157.244C412.262 157.086 412.573 157.008 412.961 157.008C413.258 157.008 413.669 157.056 414.186 157.151C414.741 157.257 415.12 157.307 415.323 157.307C415.86 157.307 416.428 157.119 417.026 156.742C417.848 156.223 418.497 155.606 418.975 154.893C419.453 154.174 419.697 153.452 419.697 152.715C419.697 151.689 419.516 150.455 419.161 149.013C418.804 147.573 418.298 146.471 417.649 145.711C417.321 145.315 416.973 145.12 416.604 145.12C416.17 145.12 415.559 145.364 414.757 145.852L414.757 145.852Z" fill="#D9DADA"/>
<path d="M431.071 72.5928V66.7862H434.013C434.249 66.7862 434.506 66.8544 434.784 66.9908C435.062 67.1219 435.298 67.3265 435.492 67.6045C435.692 67.8772 435.791 68.2234 435.791 68.643C435.791 69.0679 435.689 69.4298 435.484 69.7288C435.28 70.0226 435.031 70.2455 434.737 70.3976C434.448 70.5497 434.176 70.6258 433.919 70.6258H431.794V69.6816H433.525C433.698 69.6816 433.885 69.5951 434.084 69.422C434.289 69.2489 434.391 68.9892 434.391 68.643C434.391 68.2864 434.289 68.0451 434.084 67.9192C433.885 67.7933 433.709 67.7304 433.557 67.7304H432.345V72.5928H431.071ZM434.58 69.8547L436.027 72.5928H434.627L433.211 69.8547H434.58ZM433.274 76.0547C432.403 76.0547 431.587 75.8921 430.827 75.5668C430.066 75.2416 429.397 74.7905 428.82 74.2136C428.243 73.6366 427.792 72.9678 427.467 72.2072C427.142 71.4467 426.979 70.631 426.979 69.7603C426.979 68.8896 427.142 68.0739 427.467 67.3134C427.792 66.5528 428.243 65.884 428.82 65.307C429.397 64.73 430.066 64.279 430.827 63.9537C431.587 63.6285 432.403 63.4659 433.274 63.4659C434.144 63.4659 434.96 63.6285 435.72 63.9537C436.481 64.279 437.15 64.73 437.727 65.307C438.304 65.884 438.755 66.5528 439.08 67.3134C439.405 68.0739 439.568 68.8896 439.568 69.7603C439.568 70.631 439.405 71.4467 439.08 72.2072C438.755 72.9678 438.304 73.6366 437.727 74.2136C437.15 74.7905 436.481 75.2416 435.72 75.5668C434.96 75.8921 434.144 76.0547 433.274 76.0547ZM433.274 74.544C434.155 74.544 434.957 74.329 435.681 73.8988C436.405 73.4687 436.982 72.8917 437.412 72.1679C437.842 71.444 438.057 70.6415 438.057 69.7603C438.057 68.8791 437.842 68.0766 437.412 67.3527C436.982 66.6288 436.405 66.0519 435.681 65.6217C434.957 65.1916 434.155 64.9766 433.274 64.9766C432.392 64.9766 431.59 65.1916 430.866 65.6217C430.142 66.0519 429.565 66.6288 429.135 67.3527C428.705 68.0766 428.49 68.8791 428.49 69.7603C428.49 70.6415 428.705 71.444 429.135 72.1679C429.565 72.8917 430.142 73.4687 430.866 73.8988C431.59 74.329 432.392 74.544 433.274 74.544Z" fill="#D9DADA"/>
</g>
</g>
<defs>
<filter id="filter0_d_1858_467" x="52.1682" y="56.5615" width="392.4" height="107.177" filterUnits="userSpaceOnUse" color-interpolation-filters="sRGB">
<feFlood flood-opacity="0" result="BackgroundImageFix"/>
<feColorMatrix in="SourceAlpha" type="matrix" values="0 0 0 0 0 0 0 0 0 0 0 0 0 0 0 0 0 0 127 0" result="hardAlpha"/>
<feOffset dx="3" dy="3"/>
<feGaussianBlur stdDeviation="1"/>
<feComposite in2="hardAlpha" operator="out"/>
<feColorMatrix type="matrix" values="0 0 0 0 0 0 0 0 0 0 0 0 0 0 0 0 0 0 0.25 0"/>
<feBlend mode="normal" in2="BackgroundImageFix" result="effect1_dropShadow_1858_467"/>
<feBlend mode="normal" in="SourceGraphic" in2="effect1_dropShadow_1858_467" result="shape"/>
</filter>
<clipPath id="clip0_1858_467">
<rect width="477" height="215" fill="white"/>
</clipPath>
</defs>
</svg>
